<?xml version="1.0" encoding="utf-8" standalone="no"?>
<!DOCTYPE svg PUBLIC "-//W3C//DTD SVG 1.1//EN"
  "http://www.w3.org/Graphics/SVG/1.1/DTD/svg11.dtd">
<svg xmlns:xlink="http://www.w3.org/1999/xlink" width="712.46125pt" height="285.703875pt" viewBox="0 0 712.46125 285.703875" xmlns="http://www.w3.org/2000/svg" version="1.1">
 <metadata>
  <rdf:RDF xmlns:dc="http://purl.org/dc/elements/1.1/" xmlns:cc="http://creativecommons.org/ns#" xmlns:rdf="http://www.w3.org/1999/02/22-rdf-syntax-ns#">
   <cc:Work>
    <dc:type rdf:resource="http://purl.org/dc/dcmitype/StillImage"/>
    <dc:date>2026-09-18T09:30:57.907056</dc:date>
    <dc:format>image/svg+xml</dc:format>
    <dc:creator>
     <cc:Agent>
      <dc:title>Matplotlib v3.10.8, https://matplotlib.org/</dc:title>
     </cc:Agent>
    </dc:creator>
   </cc:Work>
  </rdf:RDF>
 </metadata>
 <defs>
  <style type="text/css">*{stroke-linejoin: round; stroke-linecap: butt}</style>
 </defs>
 <g id="figure_1">
  <g id="patch_1">
   <path d="M 0 285.703875 
L 712.46125 285.703875 
L 712.46125 0 
L 0 0 
z
" style="fill: #ffffff"/>
  </g>
  <g id="axes_1">
   <g id="patch_2">
    <path d="M 43.78125 239.430125 
L 705.26125 239.430125 
L 705.26125 22.318125 
L 43.78125 22.318125 
z
" style="fill: #ffffff"/>
   </g>
   <g id="PathCollection_1"/>
   <g id="PathCollection_2"/>
   <g id="matplotlib.axis_1">
    <g id="xtick_1">
     <g id="line2d_1">
      <defs>
       <path id="me511bf36a6" d="M 0 0 
L 0 3.5 
" style="stroke: #000000; stroke-width: 0.8"/>
      </defs>
      <g>
       <use xlink:href="#me511bf36a6" x="115.117328" y="239.430125" style="stroke: #000000; stroke-width: 0.8"/>
      </g>
     </g>
     <g id="text_1">
      <text style="font-size: 10px; font-family: 'DejaVu Sans'" transform="translate(101.125922 254.028562)">warm</text>
      <text style="font-size: 10px; font-family: 'DejaVu Sans'" transform="translate(95.462641 265.226375)">workers</text>
     </g>
    </g>
    <g id="xtick_2">
     <g id="line2d_2">
      <g>
       <use xlink:href="#me511bf36a6" x="244.819289" y="239.430125" style="stroke: #000000; stroke-width: 0.8"/>
      </g>
     </g>
     <g id="text_2">
      <text style="font-size: 10px; font-family: 'DejaVu Sans'" transform="translate(230.827883 254.028562)">warm</text>
      <text style="font-size: 10px; font-family: 'DejaVu Sans'" transform="translate(225.033352 265.226375)">unicode</text>
     </g>
    </g>
    <g id="xtick_3">
     <g id="line2d_3">
      <g>
       <use xlink:href="#me511bf36a6" x="374.52125" y="239.430125" style="stroke: #000000; stroke-width: 0.8"/>
      </g>
     </g>
     <g id="text_3">
      <text style="font-size: 10px; font-family: 'DejaVu Sans'" transform="translate(360.868125 254.028562)">novel</text>
      <text style="font-size: 10px; font-family: 'DejaVu Sans'" transform="translate(365.119688 265.226375)">nan</text>
     </g>
    </g>
    <g id="xtick_4">
     <g id="line2d_4">
      <g>
       <use xlink:href="#me511bf36a6" x="504.223211" y="239.430125" style="stroke: #000000; stroke-width: 0.8"/>
      </g>
     </g>
     <g id="text_4">
      <text style="font-size: 10px; font-family: 'DejaVu Sans'" transform="translate(487.92868 254.028562)">repeat</text>
      <text style="font-size: 10px; font-family: 'DejaVu Sans'" transform="translate(494.821648 265.226375)">nan</text>
     </g>
    </g>
    <g id="xtick_5">
     <g id="line2d_5">
      <g>
       <use xlink:href="#me511bf36a6" x="633.925172" y="239.430125" style="stroke: #000000; stroke-width: 0.8"/>
      </g>
     </g>
     <g id="text_5">
      <text style="font-size: 10px; font-family: 'DejaVu Sans'" transform="translate(619.933765 254.028562)">warm</text>
      <text style="font-size: 10px; font-family: 'DejaVu Sans'" transform="translate(623.590797 265.226375)">new</text>
      <text style="font-size: 10px; font-family: 'DejaVu Sans'" transform="translate(615.61189 276.424187)">version</text>
     </g>
    </g>
   </g>
   <g id="matplotlib.axis_2">
    <g id="ytick_1">
     <g id="line2d_6">
      <path d="M 43.78125 239.430125 
L 705.26125 239.430125 
" clip-path="url(#pd7b1aa8fd1)" style="fill: none; stroke: #b0b0b0; stroke-opacity: 0.15; stroke-width: 0.8; stroke-linecap: square"/>
     </g>
     <g id="line2d_7">
      <defs>
       <path id="mcfb8c84846" d="M 0 0 
L -3.5 0 
" style="stroke: #000000; stroke-width: 0.8"/>
      </defs>
      <g>
       <use xlink:href="#mcfb8c84846" x="43.78125" y="239.430125" style="stroke: #000000; stroke-width: 0.8"/>
      </g>
     </g>
     <g id="text_6">
      <text style="font-size: 10px; font-family: 'DejaVu Sans'; text-anchor: end" x="36.78125" y="243.229344" transform="rotate(-0 36.78125 243.229344)">0.0</text>
     </g>
    </g>
    <g id="ytick_2">
     <g id="line2d_8">
      <path d="M 43.78125 199.224199 
L 705.26125 199.224199 
" clip-path="url(#pd7b1aa8fd1)" style="fill: none; stroke: #b0b0b0; stroke-opacity: 0.15; stroke-width: 0.8; stroke-linecap: square"/>
     </g>
     <g id="line2d_9">
      <g>
       <use xlink:href="#mcfb8c84846" x="43.78125" y="199.224199" style="stroke: #000000; stroke-width: 0.8"/>
      </g>
     </g>
     <g id="text_7">
      <text style="font-size: 10px; font-family: 'DejaVu Sans'; text-anchor: end" x="36.78125" y="203.023418" transform="rotate(-0 36.78125 203.023418)">0.2</text>
     </g>
    </g>
    <g id="ytick_3">
     <g id="line2d_10">
      <path d="M 43.78125 159.018273 
L 705.26125 159.018273 
" clip-path="url(#pd7b1aa8fd1)" style="fill: none; stroke: #b0b0b0; stroke-opacity: 0.15; stroke-width: 0.8; stroke-linecap: square"/>
     </g>
     <g id="line2d_11">
      <g>
       <use xlink:href="#mcfb8c84846" x="43.78125" y="159.018273" style="stroke: #000000; stroke-width: 0.8"/>
      </g>
     </g>
     <g id="text_8">
      <text style="font-size: 10px; font-family: 'DejaVu Sans'; text-anchor: end" x="36.78125" y="162.817492" transform="rotate(-0 36.78125 162.817492)">0.4</text>
     </g>
    </g>
    <g id="ytick_4">
     <g id="line2d_12">
      <path d="M 43.78125 118.812347 
L 705.26125 118.812347 
" clip-path="url(#pd7b1aa8fd1)" style="fill: none; stroke: #b0b0b0; stroke-opacity: 0.15; stroke-width: 0.8; stroke-linecap: square"/>
     </g>
     <g id="line2d_13">
      <g>
       <use xlink:href="#mcfb8c84846" x="43.78125" y="118.812347" style="stroke: #000000; stroke-width: 0.8"/>
      </g>
     </g>
     <g id="text_9">
      <text style="font-size: 10px; font-family: 'DejaVu Sans'; text-anchor: end" x="36.78125" y="122.611566" transform="rotate(-0 36.78125 122.611566)">0.6</text>
     </g>
    </g>
    <g id="ytick_5">
     <g id="line2d_14">
      <path d="M 43.78125 78.606421 
L 705.26125 78.606421 
" clip-path="url(#pd7b1aa8fd1)" style="fill: none; stroke: #b0b0b0; stroke-opacity: 0.15; stroke-width: 0.8; stroke-linecap: square"/>
     </g>
     <g id="line2d_15">
      <g>
       <use xlink:href="#mcfb8c84846" x="43.78125" y="78.606421" style="stroke: #000000; stroke-width: 0.8"/>
      </g>
     </g>
     <g id="text_10">
      <text style="font-size: 10px; font-family: 'DejaVu Sans'; text-anchor: end" x="36.78125" y="82.40564" transform="rotate(-0 36.78125 82.40564)">0.8</text>
     </g>
    </g>
    <g id="ytick_6">
     <g id="line2d_16">
      <path d="M 43.78125 38.400495 
L 705.26125 38.400495 
" clip-path="url(#pd7b1aa8fd1)" style="fill: none; stroke: #b0b0b0; stroke-opacity: 0.15; stroke-width: 0.8; stroke-linecap: square"/>
     </g>
     <g id="line2d_17">
      <g>
       <use xlink:href="#mcfb8c84846" x="43.78125" y="38.400495" style="stroke: #000000; stroke-width: 0.8"/>
      </g>
     </g>
     <g id="text_11">
      <text style="font-size: 10px; font-family: 'DejaVu Sans'; text-anchor: end" x="36.78125" y="42.199714" transform="rotate(-0 36.78125 42.199714)">1.0</text>
     </g>
    </g>
    <g id="text_12">
     <text style="font-size: 10px; font-family: 'DejaVu Sans'; text-anchor: middle" x="14.798438" y="130.874125" transform="rotate(-90 14.798438 130.874125)">Conditional candidate probability</text>
    </g>
   </g>
   <g id="line2d_18">
    <path d="M 43.78125 78.606421 
L 705.26125 78.606421 
" clip-path="url(#pd7b1aa8fd1)" style="fill: none; stroke-dasharray: 5.55,2.4; stroke-dashoffset: 0; stroke: #555555; stroke-width: 1.5"/>
   </g>
   <g id="patch_3">
    <path d="M 43.78125 239.430125 
L 43.78125 22.318125 
" style="fill: none; stroke: #000000; stroke-width: 0.8; stroke-linejoin: miter; stroke-linecap: square"/>
   </g>
   <g id="patch_4">
    <path d="M 43.78125 239.430125 
L 705.26125 239.430125 
" style="fill: none; stroke: #000000; stroke-width: 0.8; stroke-linejoin: miter; stroke-linecap: square"/>
   </g>
   <g id="PathCollection_3">
    <defs>
     <path id="m52a2ed38e1" d="M 0 4.743416 
C 1.257969 4.743416 2.464584 4.24362 3.354102 3.354102 
C 4.24362 2.464584 4.743416 1.257969 4.743416 0 
C 4.743416 -1.257969 4.24362 -2.464584 3.354102 -3.354102 
C 2.464584 -4.24362 1.257969 -4.743416 0 -4.743416 
C -1.257969 -4.743416 -2.464584 -4.24362 -3.354102 -3.354102 
C -4.24362 -2.464584 -4.743416 -1.257969 -4.743416 0 
C -4.743416 1.257969 -4.24362 2.464584 -3.354102 3.354102 
C -2.464584 4.24362 -1.257969 4.743416 0 4.743416 
z
" style="stroke: #18867f"/>
    </defs>
    <g clip-path="url(#pd7b1aa8fd1)">
     <use xlink:href="#m52a2ed38e1" x="115.117328" y="38.44139" style="fill: #18867f; stroke: #18867f"/>
    </g>
   </g>
   <g id="text_13">
    <text style="font-size: 10px; font-family: 'DejaVu Sans'; text-anchor: middle" x="115.117328" y="32.812561" transform="rotate(-0 115.117328 32.812561)">0.9998</text>
   </g>
   <g id="PathCollection_4">
    <g clip-path="url(#pd7b1aa8fd1)">
     <use xlink:href="#m52a2ed38e1" x="244.819289" y="83.169824" style="fill: #18867f; stroke: #18867f"/>
    </g>
   </g>
   <g id="text_14">
    <text style="font-size: 10px; font-family: 'DejaVu Sans'; text-anchor: middle" x="244.819289" y="77.540994" transform="rotate(-0 244.819289 77.540994)">0.7773</text>
   </g>
   <g id="PathCollection_5">
    <defs>
     <path id="m5a7e3e0cc4" d="M -2.371708 4.743416 
L 0 2.371708 
L 2.371708 4.743416 
L 4.743416 2.371708 
L 2.371708 0 
L 4.743416 -2.371708 
L 2.371708 -4.743416 
L 0 -2.371708 
L -2.371708 -4.743416 
L -4.743416 -2.371708 
L -2.371708 0 
L -4.743416 2.371708 
z
" style="stroke: #bb4545"/>
    </defs>
    <g clip-path="url(#pd7b1aa8fd1)">
     <use xlink:href="#m5a7e3e0cc4" x="374.52125" y="75.073431" style="fill: #bb4545; stroke: #bb4545"/>
    </g>
   </g>
   <g id="text_15">
    <text style="font-size: 10px; font-family: 'DejaVu Sans'; text-anchor: middle" x="374.52125" y="69.444601" transform="rotate(-0 374.52125 69.444601)">0.8176</text>
   </g>
   <g id="PathCollection_6">
    <g clip-path="url(#pd7b1aa8fd1)">
     <use xlink:href="#m5a7e3e0cc4" x="504.223211" y="75.07343" style="fill: #bb4545; stroke: #bb4545"/>
    </g>
   </g>
   <g id="text_16">
    <text style="font-size: 10px; font-family: 'DejaVu Sans'; text-anchor: middle" x="504.223211" y="69.4446" transform="rotate(-0 504.223211 69.4446)">0.8176</text>
   </g>
   <g id="PathCollection_7">
    <g clip-path="url(#pd7b1aa8fd1)">
     <use xlink:href="#m52a2ed38e1" x="633.925172" y="114.297356" style="fill: #18867f; stroke: #18867f"/>
    </g>
   </g>
   <g id="text_17">
    <text style="font-size: 10px; font-family: 'DejaVu Sans'; text-anchor: middle" x="633.925172" y="108.668527" transform="rotate(-0 633.925172 108.668527)">0.6225</text>
   </g>
   <g id="text_18">
    <text style="font-weight: 700; font-size: 12px; font-family: 'DejaVu Sans'; text-anchor: middle" x="374.52125" y="16.318125" transform="rotate(-0 374.52125 16.318125)">A higher classification score did not imply a correct reusable edit</text>
   </g>
   <g id="legend_1">
    <g id="patch_5">
     <path d="M 50.08125 234.930125 
L 232.587187 234.930125 
Q 234.387187 234.930125 234.387187 233.130125 
L 234.387187 194.399187 
Q 234.387187 192.599187 232.587187 192.599187 
L 50.08125 192.599187 
Q 48.28125 192.599187 48.28125 194.399187 
L 48.28125 233.130125 
Q 48.28125 234.930125 50.08125 234.930125 
z
" style="fill: #ffffff; opacity: 0.8; stroke: #cccccc; stroke-linejoin: miter"/>
    </g>
    <g id="line2d_19">
     <path d="M 51.88125 199.887781 
L 60.88125 199.887781 
L 69.88125 199.887781 
" style="fill: none; stroke-dasharray: 5.55,2.4; stroke-dashoffset: 0; stroke: #555555; stroke-width: 1.5"/>
    </g>
    <g id="text_19">
     <text style="font-size: 9px; font-family: 'DejaVu Sans'; text-anchor: start" x="77.08125" y="203.037781" transform="rotate(-0 77.08125 203.037781)">Fixed score threshold = 0.8</text>
    </g>
    <g id="PathCollection_8">
     <defs>
      <path id="m6eb21a74ba" d="M 0 4.1833 
C 1.109424 4.1833 2.173559 3.742521 2.95804 2.95804 
C 3.742521 2.173559 4.1833 1.109424 4.1833 0 
C 4.1833 -1.109424 3.742521 -2.173559 2.95804 -2.95804 
C 2.173559 -3.742521 1.109424 -4.1833 0 -4.1833 
C -1.109424 -4.1833 -2.173559 -3.742521 -2.95804 -2.95804 
C -3.742521 -2.173559 -4.1833 -1.109424 -4.1833 0 
C -4.1833 1.109424 -3.742521 2.173559 -2.95804 2.95804 
C -2.173559 3.742521 -1.109424 4.1833 0 4.1833 
z
" style="stroke: #18867f"/>
     </defs>
     <g>
      <use xlink:href="#m6eb21a74ba" x="60.88125" y="213.885594" style="fill: #18867f; stroke: #18867f"/>
     </g>
    </g>
    <g id="text_20">
     <text style="font-size: 9px; font-family: 'DejaVu Sans'; text-anchor: start" x="77.08125" y="216.248094" transform="rotate(-0 77.08125 216.248094)">Behaviorally correct candidate</text>
    </g>
    <g id="PathCollection_9">
     <defs>
      <path id="m43eabf770e" d="M -2.09165 4.1833 
L 0 2.09165 
L 2.09165 4.1833 
L 4.1833 2.09165 
L 2.09165 0 
L 4.1833 -2.09165 
L 2.09165 -4.1833 
L 0 -2.09165 
L -2.09165 -4.1833 
L -4.1833 -2.09165 
L -2.09165 0 
L -4.1833 2.09165 
z
" style="stroke: #bb4545"/>
     </defs>
     <g>
      <use xlink:href="#m43eabf770e" x="60.88125" y="227.095906" style="fill: #bb4545; stroke: #bb4545"/>
     </g>
    </g>
    <g id="text_21">
     <text style="font-size: 9px; font-family: 'DejaVu Sans'; text-anchor: start" x="77.08125" y="229.458406" transform="rotate(-0 77.08125 229.458406)">Wrong candidate (oracle rejected)</text>
    </g>
   </g>
  </g>
 </g>
 <defs>
  <clipPath id="pd7b1aa8fd1">
   <rect x="43.78125" y="22.318125" width="661.48" height="217.112"/>
  </clipPath>
 </defs>
</svg>
