<?xml version="1.0" encoding="utf-8" standalone="no"?>
<!DOCTYPE svg PUBLIC "-//W3C//DTD SVG 1.1//EN"
  "http://www.w3.org/Graphics/SVG/1.1/DTD/svg11.dtd">
<svg xmlns:xlink="http://www.w3.org/1999/xlink" width="710.029531pt" height="326.048437pt" viewBox="0 0 710.029531 326.048437" xmlns="http://www.w3.org/2000/svg" version="1.1">
 <metadata>
  <rdf:RDF xmlns:dc="http://purl.org/dc/elements/1.1/" xmlns:cc="http://creativecommons.org/ns#" xmlns:rdf="http://www.w3.org/1999/02/22-rdf-syntax-ns#">
   <cc:Work>
    <dc:type rdf:resource="http://purl.org/dc/dcmitype/StillImage"/>
    <dc:date>2026-09-18T09:31:00.474124</dc:date>
    <dc:format>image/svg+xml</dc:format>
    <dc:creator>
     <cc:Agent>
      <dc:title>Matplotlib v3.10.8, https://matplotlib.org/</dc:title>
     </cc:Agent>
    </dc:creator>
   </cc:Work>
  </rdf:RDF>
 </metadata>
 <defs>
  <style type="text/css">*{stroke-linejoin: round; stroke-linecap: butt}</style>
 </defs>
 <g id="figure_1">
  <g id="patch_1">
   <path d="M 0 326.048437 
L 710.029531 326.048437 
L 710.029531 0 
L 0 0 
z
" style="fill: #ffffff"/>
  </g>
  <g id="axes_1">
   <g id="patch_2">
    <path d="M 42.329688 258.626875 
L 695.889687 258.626875 
L 695.889687 22.906875 
L 42.329688 22.906875 
z
" style="fill: #ffffff"/>
   </g>
   <g id="PathCollection_1">
    <defs>
     <path id="m015618ab33" d="M 0 2.95804 
C 0.784481 2.95804 1.536938 2.646362 2.09165 2.09165 
C 2.646362 1.536938 2.95804 0.784481 2.95804 0 
C 2.95804 -0.784481 2.646362 -1.536938 2.09165 -2.09165 
C 1.536938 -2.646362 0.784481 -2.95804 0 -2.95804 
C -0.784481 -2.95804 -1.536938 -2.646362 -2.09165 -2.09165 
C -2.646362 -1.536938 -2.95804 -0.784481 -2.95804 0 
C -2.95804 0.784481 -2.646362 1.536938 -2.09165 2.09165 
C -1.536938 2.646362 -0.784481 2.95804 0 2.95804 
z
" style="stroke: #506477"/>
    </defs>
    <g clip-path="url(#pb5eeafc601)">
     <use xlink:href="#m015618ab33" x="76.727582" y="101.480208" style="fill: #506477; stroke: #506477"/>
    </g>
   </g>
   <g id="PathCollection_2">
    <defs>
     <path id="m1ad6c088d1" d="M 0 2.95804 
C 0.784481 2.95804 1.536938 2.646362 2.09165 2.09165 
C 2.646362 1.536938 2.95804 0.784481 2.95804 0 
C 2.95804 -0.784481 2.646362 -1.536938 2.09165 -2.09165 
C 1.536938 -2.646362 0.784481 -2.95804 0 -2.95804 
C -0.784481 -2.95804 -1.536938 -2.646362 -2.09165 -2.09165 
C -2.646362 -1.536938 -2.95804 -0.784481 -2.95804 0 
C -2.95804 0.784481 -2.646362 1.536938 -2.09165 2.09165 
C -1.536938 2.646362 -0.784481 2.95804 0 2.95804 
z
" style="stroke: #18867f"/>
    </defs>
    <g clip-path="url(#pb5eeafc601)">
     <use xlink:href="#m1ad6c088d1" x="179.921266" y="101.480208" style="fill: #18867f; stroke: #18867f"/>
    </g>
   </g>
   <g id="PathCollection_3">
    <defs>
     <path id="mcd596c2e16" d="M 0 2.95804 
C 0.784481 2.95804 1.536938 2.646362 2.09165 2.09165 
C 2.646362 1.536938 2.95804 0.784481 2.95804 0 
C 2.95804 -0.784481 2.646362 -1.536938 2.09165 -2.09165 
C 1.536938 -2.646362 0.784481 -2.95804 0 -2.95804 
C -0.784481 -2.95804 -1.536938 -2.646362 -2.09165 -2.09165 
C -2.646362 -1.536938 -2.95804 -0.784481 -2.95804 0 
C -2.95804 0.784481 -2.646362 1.536938 -2.09165 2.09165 
C -1.536938 2.646362 -0.784481 2.95804 0 2.95804 
z
" style="stroke: #ce8638"/>
    </defs>
    <g clip-path="url(#pb5eeafc601)">
     <use xlink:href="#mcd596c2e16" x="317.512845" y="101.480208" style="fill: #ce8638; stroke: #ce8638"/>
    </g>
   </g>
   <g id="matplotlib.axis_1">
    <g id="xtick_1">
     <g id="line2d_1">
      <path d="M 42.329688 258.626875 
L 42.329688 22.906875 
" clip-path="url(#pb5eeafc601)" style="fill: none; stroke: #b0b0b0; stroke-opacity: 0.15; stroke-width: 0.8; stroke-linecap: square"/>
     </g>
     <g id="line2d_2">
      <defs>
       <path id="mca0fbf173a" d="M 0 0 
L 0 3.5 
" style="stroke: #000000; stroke-width: 0.8"/>
      </defs>
      <g>
       <use xlink:href="#mca0fbf173a" x="42.329688" y="258.626875" style="stroke: #000000; stroke-width: 0.8"/>
      </g>
     </g>
     <g id="text_1">
      <text style="font-size: 10px; font-family: 'DejaVu Sans'; text-anchor: middle" x="42.329688" y="273.58625" transform="rotate(-0 42.329688 273.58625)">0.0</text>
     </g>
    </g>
    <g id="xtick_2">
     <g id="line2d_3">
      <path d="M 173.041687 258.626875 
L 173.041687 22.906875 
" clip-path="url(#pb5eeafc601)" style="fill: none; stroke: #b0b0b0; stroke-opacity: 0.15; stroke-width: 0.8; stroke-linecap: square"/>
     </g>
     <g id="line2d_4">
      <g>
       <use xlink:href="#mca0fbf173a" x="173.041687" y="258.626875" style="stroke: #000000; stroke-width: 0.8"/>
      </g>
     </g>
     <g id="text_2">
      <text style="font-size: 10px; font-family: 'DejaVu Sans'; text-anchor: middle" x="173.041687" y="273.58625" transform="rotate(-0 173.041687 273.58625)">0.2</text>
     </g>
    </g>
    <g id="xtick_3">
     <g id="line2d_5">
      <path d="M 303.753687 258.626875 
L 303.753687 22.906875 
" clip-path="url(#pb5eeafc601)" style="fill: none; stroke: #b0b0b0; stroke-opacity: 0.15; stroke-width: 0.8; stroke-linecap: square"/>
     </g>
     <g id="line2d_6">
      <g>
       <use xlink:href="#mca0fbf173a" x="303.753687" y="258.626875" style="stroke: #000000; stroke-width: 0.8"/>
      </g>
     </g>
     <g id="text_3">
      <text style="font-size: 10px; font-family: 'DejaVu Sans'; text-anchor: middle" x="303.753687" y="273.58625" transform="rotate(-0 303.753687 273.58625)">0.4</text>
     </g>
    </g>
    <g id="xtick_4">
     <g id="line2d_7">
      <path d="M 434.465688 258.626875 
L 434.465688 22.906875 
" clip-path="url(#pb5eeafc601)" style="fill: none; stroke: #b0b0b0; stroke-opacity: 0.15; stroke-width: 0.8; stroke-linecap: square"/>
     </g>
     <g id="line2d_8">
      <g>
       <use xlink:href="#mca0fbf173a" x="434.465688" y="258.626875" style="stroke: #000000; stroke-width: 0.8"/>
      </g>
     </g>
     <g id="text_4">
      <text style="font-size: 10px; font-family: 'DejaVu Sans'; text-anchor: middle" x="434.465688" y="273.58625" transform="rotate(-0 434.465688 273.58625)">0.6</text>
     </g>
    </g>
    <g id="xtick_5">
     <g id="line2d_9">
      <path d="M 565.177687 258.626875 
L 565.177687 22.906875 
" clip-path="url(#pb5eeafc601)" style="fill: none; stroke: #b0b0b0; stroke-opacity: 0.15; stroke-width: 0.8; stroke-linecap: square"/>
     </g>
     <g id="line2d_10">
      <g>
       <use xlink:href="#mca0fbf173a" x="565.177687" y="258.626875" style="stroke: #000000; stroke-width: 0.8"/>
      </g>
     </g>
     <g id="text_5">
      <text style="font-size: 10px; font-family: 'DejaVu Sans'; text-anchor: middle" x="565.177687" y="273.58625" transform="rotate(-0 565.177687 273.58625)">0.8</text>
     </g>
    </g>
    <g id="xtick_6">
     <g id="line2d_11">
      <path d="M 695.889687 258.626875 
L 695.889687 22.906875 
" clip-path="url(#pb5eeafc601)" style="fill: none; stroke: #b0b0b0; stroke-opacity: 0.15; stroke-width: 0.8; stroke-linecap: square"/>
     </g>
     <g id="line2d_12">
      <g>
       <use xlink:href="#mca0fbf173a" x="695.889687" y="258.626875" style="stroke: #000000; stroke-width: 0.8"/>
      </g>
     </g>
     <g id="text_6">
      <text style="font-size: 10px; font-family: 'DejaVu Sans'; text-anchor: middle" x="695.889687" y="273.58625" transform="rotate(-0 695.889687 273.58625)">1.0</text>
     </g>
    </g>
    <g id="text_7">
     <text style="font-size: 10px; font-family: 'DejaVu Sans'; text-anchor: middle" x="369.109687" y="287.83625" transform="rotate(-0 369.109687 287.83625)">经验证的命中率 h</text>
    </g>
   </g>
   <g id="matplotlib.axis_2">
    <g id="ytick_1">
     <g id="line2d_13">
      <path d="M 42.329688 258.626875 
L 695.889687 258.626875 
" clip-path="url(#pb5eeafc601)" style="fill: none; stroke: #b0b0b0; stroke-opacity: 0.15; stroke-width: 0.8; stroke-linecap: square"/>
     </g>
     <g id="line2d_14">
      <defs>
       <path id="m5f8606efa7" d="M 0 0 
L -3.5 0 
" style="stroke: #000000; stroke-width: 0.8"/>
      </defs>
      <g>
       <use xlink:href="#m5f8606efa7" x="42.329688" y="258.626875" style="stroke: #000000; stroke-width: 0.8"/>
      </g>
     </g>
     <g id="text_8">
      <text style="font-size: 10px; font-family: 'DejaVu Sans'; text-anchor: end" x="35.329688" y="262.606562" transform="rotate(-0 35.329688 262.606562)">0.0</text>
     </g>
    </g>
    <g id="ytick_2">
     <g id="line2d_15">
      <path d="M 42.329688 227.197542 
L 695.889687 227.197542 
" clip-path="url(#pb5eeafc601)" style="fill: none; stroke: #b0b0b0; stroke-opacity: 0.15; stroke-width: 0.8; stroke-linecap: square"/>
     </g>
     <g id="line2d_16">
      <g>
       <use xlink:href="#m5f8606efa7" x="42.329688" y="227.197542" style="stroke: #000000; stroke-width: 0.8"/>
      </g>
     </g>
     <g id="text_9">
      <text style="font-size: 10px; font-family: 'DejaVu Sans'; text-anchor: end" x="35.329688" y="231.177229" transform="rotate(-0 35.329688 231.177229)">0.2</text>
     </g>
    </g>
    <g id="ytick_3">
     <g id="line2d_17">
      <path d="M 42.329688 195.768208 
L 695.889687 195.768208 
" clip-path="url(#pb5eeafc601)" style="fill: none; stroke: #b0b0b0; stroke-opacity: 0.15; stroke-width: 0.8; stroke-linecap: square"/>
     </g>
     <g id="line2d_18">
      <g>
       <use xlink:href="#m5f8606efa7" x="42.329688" y="195.768208" style="stroke: #000000; stroke-width: 0.8"/>
      </g>
     </g>
     <g id="text_10">
      <text style="font-size: 10px; font-family: 'DejaVu Sans'; text-anchor: end" x="35.329688" y="199.747896" transform="rotate(-0 35.329688 199.747896)">0.4</text>
     </g>
    </g>
    <g id="ytick_4">
     <g id="line2d_19">
      <path d="M 42.329688 164.338875 
L 695.889687 164.338875 
" clip-path="url(#pb5eeafc601)" style="fill: none; stroke: #b0b0b0; stroke-opacity: 0.15; stroke-width: 0.8; stroke-linecap: square"/>
     </g>
     <g id="line2d_20">
      <g>
       <use xlink:href="#m5f8606efa7" x="42.329688" y="164.338875" style="stroke: #000000; stroke-width: 0.8"/>
      </g>
     </g>
     <g id="text_11">
      <text style="font-size: 10px; font-family: 'DejaVu Sans'; text-anchor: end" x="35.329688" y="168.318562" transform="rotate(-0 35.329688 168.318562)">0.6</text>
     </g>
    </g>
    <g id="ytick_5">
     <g id="line2d_21">
      <path d="M 42.329688 132.909542 
L 695.889687 132.909542 
" clip-path="url(#pb5eeafc601)" style="fill: none; stroke: #b0b0b0; stroke-opacity: 0.15; stroke-width: 0.8; stroke-linecap: square"/>
     </g>
     <g id="line2d_22">
      <g>
       <use xlink:href="#m5f8606efa7" x="42.329688" y="132.909542" style="stroke: #000000; stroke-width: 0.8"/>
      </g>
     </g>
     <g id="text_12">
      <text style="font-size: 10px; font-family: 'DejaVu Sans'; text-anchor: end" x="35.329688" y="136.889229" transform="rotate(-0 35.329688 136.889229)">0.8</text>
     </g>
    </g>
    <g id="ytick_6">
     <g id="line2d_23">
      <path d="M 42.329688 101.480208 
L 695.889687 101.480208 
" clip-path="url(#pb5eeafc601)" style="fill: none; stroke: #b0b0b0; stroke-opacity: 0.15; stroke-width: 0.8; stroke-linecap: square"/>
     </g>
     <g id="line2d_24">
      <g>
       <use xlink:href="#m5f8606efa7" x="42.329688" y="101.480208" style="stroke: #000000; stroke-width: 0.8"/>
      </g>
     </g>
     <g id="text_13">
      <text style="font-size: 10px; font-family: 'DejaVu Sans'; text-anchor: end" x="35.329688" y="105.459896" transform="rotate(-0 35.329688 105.459896)">1.0</text>
     </g>
    </g>
    <g id="ytick_7">
     <g id="line2d_25">
      <path d="M 42.329688 70.050875 
L 695.889687 70.050875 
" clip-path="url(#pb5eeafc601)" style="fill: none; stroke: #b0b0b0; stroke-opacity: 0.15; stroke-width: 0.8; stroke-linecap: square"/>
     </g>
     <g id="line2d_26">
      <g>
       <use xlink:href="#m5f8606efa7" x="42.329688" y="70.050875" style="stroke: #000000; stroke-width: 0.8"/>
      </g>
     </g>
     <g id="text_14">
      <text style="font-size: 10px; font-family: 'DejaVu Sans'; text-anchor: end" x="35.329688" y="74.030562" transform="rotate(-0 35.329688 74.030562)">1.2</text>
     </g>
    </g>
    <g id="ytick_8">
     <g id="line2d_27">
      <path d="M 42.329688 38.621542 
L 695.889687 38.621542 
" clip-path="url(#pb5eeafc601)" style="fill: none; stroke: #b0b0b0; stroke-opacity: 0.15; stroke-width: 0.8; stroke-linecap: square"/>
     </g>
     <g id="line2d_28">
      <g>
       <use xlink:href="#m5f8606efa7" x="42.329688" y="38.621542" style="stroke: #000000; stroke-width: 0.8"/>
      </g>
     </g>
     <g id="text_15">
      <text style="font-size: 10px; font-family: 'DejaVu Sans'; text-anchor: end" x="35.329688" y="42.601229" transform="rotate(-0 35.329688 42.601229)">1.4</text>
     </g>
    </g>
    <g id="text_16">
     <text style="font-size: 10px; font-family: 'DejaVu Sans'; text-anchor: middle" x="15.159375" y="140.766875" transform="rotate(-90 15.159375 140.766875)">预期成本 / 生成成本 G</text>
    </g>
   </g>
   <g id="line2d_29">
    <path d="M 42.329688 93.622875 
L 695.889687 242.912208 
L 695.889687 242.912208 
" clip-path="url(#pb5eeafc601)" style="fill: none; stroke: #506477; stroke-width: 2; stroke-linecap: square"/>
   </g>
   <g id="line2d_30">
    <path d="M 42.329688 70.050875 
L 695.889687 219.340208 
L 695.889687 219.340208 
" clip-path="url(#pb5eeafc601)" style="fill: none; stroke: #18867f; stroke-width: 2; stroke-linecap: square"/>
   </g>
   <g id="line2d_31">
    <path d="M 42.329688 38.621542 
L 695.889687 187.910875 
L 695.889687 187.910875 
" clip-path="url(#pb5eeafc601)" style="fill: none; stroke: #ce8638; stroke-width: 2; stroke-linecap: square"/>
   </g>
   <g id="line2d_32">
    <path d="M 42.329688 101.480208 
L 695.889687 101.480208 
" clip-path="url(#pb5eeafc601)" style="fill: none; stroke-dasharray: 5.55,2.4; stroke-dashoffset: 0; stroke: #777777; stroke-width: 1.5"/>
   </g>
   <g id="patch_3">
    <path d="M 42.329688 258.626875 
L 42.329688 22.906875 
" style="fill: none; stroke: #000000; stroke-width: 0.8; stroke-linejoin: miter; stroke-linecap: square"/>
   </g>
   <g id="patch_4">
    <path d="M 42.329688 258.626875 
L 695.889687 258.626875 
" style="fill: none; stroke: #000000; stroke-width: 0.8; stroke-linejoin: miter; stroke-linecap: square"/>
   </g>
   <g id="text_17">
    <text style="font-weight: 700; font-size: 12px; font-family: 'DejaVu Sans'; text-anchor: middle" x="369.109687" y="16.906875" transform="rotate(-0 369.109687 16.906875)">复用何时有收益？ h (G − B) &gt; O</text>
   </g>
   <g id="legend_1">
    <g id="patch_5">
     <path d="M 597.789687 85.006875 
L 689.589687 85.006875 
Q 691.389687 85.006875 691.389687 83.206875 
L 691.389687 29.206875 
Q 691.389687 27.406875 689.589687 27.406875 
L 597.789687 27.406875 
Q 595.989687 27.406875 595.989687 29.206875 
L 595.989687 83.206875 
Q 595.989687 85.006875 597.789687 85.006875 
z
" style="fill: #ffffff; opacity: 0.8; stroke: #cccccc; stroke-linejoin: miter"/>
    </g>
    <g id="line2d_33">
     <path d="M 599.589687 35.020312 
L 608.589687 35.020312 
L 617.589687 35.020312 
" style="fill: none; stroke: #506477; stroke-width: 2; stroke-linecap: square"/>
    </g>
    <g id="text_18">
     <text style="font-size: 9px; font-family: 'DejaVu Sans'; text-anchor: start" x="624.789688" y="38.170312" transform="rotate(-0 624.789688 38.170312)">O/G = 0.05</text>
    </g>
    <g id="line2d_34">
     <path d="M 599.589687 48.745312 
L 608.589687 48.745312 
L 617.589687 48.745312 
" style="fill: none; stroke: #18867f; stroke-width: 2; stroke-linecap: square"/>
    </g>
    <g id="text_19">
     <text style="font-size: 9px; font-family: 'DejaVu Sans'; text-anchor: start" x="624.789688" y="51.895312" transform="rotate(-0 624.789688 51.895312)">O/G = 0.20</text>
    </g>
    <g id="line2d_35">
     <path d="M 599.589687 62.470312 
L 608.589687 62.470312 
L 617.589687 62.470312 
" style="fill: none; stroke: #ce8638; stroke-width: 2; stroke-linecap: square"/>
    </g>
    <g id="text_20">
     <text style="font-size: 9px; font-family: 'DejaVu Sans'; text-anchor: start" x="624.789688" y="65.620312" transform="rotate(-0 624.789688 65.620312)">O/G = 0.40</text>
    </g>
    <g id="line2d_36">
     <path d="M 599.589687 76.195312 
L 608.589687 76.195312 
L 617.589687 76.195312 
" style="fill: none; stroke-dasharray: 5.55,2.4; stroke-dashoffset: 0; stroke: #777777; stroke-width: 1.5"/>
    </g>
    <g id="text_21">
     <text style="font-size: 9px; font-family: 'DejaVu Sans'; text-anchor: start" x="624.789688" y="79.345312" transform="rotate(-0 624.789688 79.345312)">始终生成的基线</text>
    </g>
   </g>
  </g>
  <g id="text_22">
   <text style="font-size: 9px; font-family: 'DejaVu Sans'; text-anchor: middle" x="354.609688" y="316.786875" transform="rotate(-0 354.609688 316.786875)">解释性成本模型，不是实测曲线。假设 B/G = 0.05，验证成本相同，不含错误执行项。</text>
  </g>
 </g>
 <defs>
  <clipPath id="pb5eeafc601">
   <rect x="42.329688" y="22.906875" width="653.56" height="235.72"/>
  </clipPath>
 </defs>
</svg>
